<svg xmlns="http://www.w3.org/2000/svg" width="2733" height="1879" viewBox="0 0 2733 1879" version="1.1"><path d="" stroke="none" fill="#88043c" fillRule="evenodd"/><path d="M 1344 1.581 C 1297.416 9.052, 1257.953 42.171, 1242.217 87 C 1236.911 102.116, 1235.563 110.723, 1235.563 129.500 C 1235.563 148.277, 1236.911 156.884, 1242.217 172 C 1262.895 230.909, 1322.025 266.605, 1383.746 257.441 C 1434.370 249.924, 1476.186 212.551, 1489.457 162.965 C 1503.758 109.523, 1482.674 53.411, 1436.500 22.034 C 1422.823 12.739, 1406.785 6.068, 1389.500 2.484 C 1378.155 0.131, 1355.804 -0.312, 1344 1.581 M 1014.500 205.531 C 948.029 217.757, 901.506 278.566, 908.020 344.707 C 911.148 376.461, 923.303 402.375, 945.464 424.536 C 970.557 449.629, 1001.374 462.340, 1037 462.291 C 1062.783 462.256, 1085.616 455.669, 1106.500 442.241 C 1137.463 422.332, 1158.454 390.450, 1164.533 354.093 C 1167.037 339.116, 1166.185 316.232, 1162.611 302.500 C 1156.232 277.994, 1145.050 258.356, 1127.783 241.336 C 1109.996 223.804, 1091.004 213.272, 1065.596 206.850 C 1054.737 204.105, 1026.251 203.370, 1014.500 205.531 M 1670 204.656 C 1641.535 209.025, 1617.641 220.677, 1597.666 239.930 C 1586.416 250.774, 1578.778 260.900, 1572.220 273.668 C 1562.096 293.376, 1558.009 310.470, 1558.003 333.119 C 1557.997 359.641, 1564.516 382.199, 1578.280 403.281 C 1612.763 456.099, 1679.328 476.731, 1737.126 452.518 C 1777.608 435.558, 1806.937 398.707, 1814.509 355.290 C 1815.343 350.505, 1816 340.686, 1816 333 C 1816 307.668, 1810.250 286.514, 1797.862 266.274 C 1792 256.697, 1787.983 251.603, 1779.203 242.612 C 1760.055 223.006, 1735.686 210.204, 1708.619 205.533 C 1700.533 204.137, 1676.879 203.600, 1670 204.656 M 702.097 390.546 C 677.449 394.869, 653.871 406.782, 635.446 424.223 C 614.513 444.038, 601.140 469.299, 596.436 497.915 C 593.081 518.323, 595.766 545.160, 603.048 564 C 610.965 584.485, 625.248 604.354, 642 618.183 C 687.818 656.009, 754.447 657.439, 802.028 621.620 C 827.285 602.606, 844.417 575.437, 851.139 543.734 C 853.938 530.532, 854.177 507.770, 851.653 494.818 C 845.283 462.134, 827.406 433.616, 801.040 414.085 C 788.955 405.132, 771.201 396.684, 756.500 392.893 C 745.880 390.154, 742.545 389.756, 727.500 389.435 C 715.526 389.180, 708.015 389.508, 702.097 390.546 M 1342.500 390.588 C 1273.258 402.775, 1226.217 467.631, 1236.423 536.837 C 1240.707 565.890, 1253.662 590.872, 1275.126 611.474 C 1300.092 635.437, 1329.733 647.328, 1364.500 647.328 C 1398.755 647.328, 1428.655 635.452, 1453.262 612.075 C 1473.473 592.873, 1486.151 569.824, 1491.706 542.182 C 1494.076 530.387, 1494.055 505.809, 1491.663 493.725 C 1486.690 468.599, 1474.128 445.063, 1456.032 426.969 C 1436.686 407.624, 1412.752 395.187, 1386.074 390.615 C 1374.559 388.642, 1353.629 388.629, 1342.500 390.588 M 1987.097 390.612 C 1940.930 398.348, 1900.859 433.042, 1886.166 478 C 1880.406 495.623, 1878.456 520.282, 1881.402 538.237 C 1889.947 590.319, 1927.845 631.446, 1978.865 644.005 C 2015.881 653.117, 2056.331 644.729, 2087.110 621.558 C 2141.785 580.399, 2154.980 502.786, 2116.898 446.349 C 2100.421 421.931, 2076.990 404.138, 2049.496 395.166 C 2030.984 389.125, 2006.591 387.345, 1987.097 390.612 M 1673.265 581.966 C 1634.897 586.348, 1600.698 607.084, 1579.620 638.746 C 1564.554 661.377, 1558 683.310, 1558 711.096 C 1558 746.797, 1570.417 776.607, 1595.905 802.095 C 1611.566 817.756, 1625.870 826.667, 1646.340 833.514 C 1691.689 848.684, 1741.831 837.326, 1776.334 804.070 C 1792.049 788.923, 1803.216 771.409, 1809.925 751.385 C 1818.617 725.440, 1818.224 693.804, 1808.879 667.312 C 1793.896 624.832, 1757.312 592.988, 1713.234 584.060 C 1701.841 581.752, 1683.535 580.793, 1673.265 581.966 M 1352.009 778.062 C 1307.502 782.488, 1268.138 809.661, 1248.521 849.500 C 1230.776 885.537, 1230.582 927.611, 1247.996 963.500 C 1262.981 994.383, 1290.450 1018.511, 1323.041 1029.415 C 1339.475 1034.914, 1349.663 1036.307, 1369 1035.701 C 1392.130 1034.975, 1409.254 1030.338, 1427.633 1019.822 C 1461.794 1000.277, 1485.281 967.201, 1492.126 929 C 1494.048 918.274, 1493.805 893.581, 1491.672 882.790 C 1482.546 836.619, 1449.539 798.868, 1405.350 784.064 C 1389.587 778.783, 1368.557 776.417, 1352.009 778.062 M 1351.500 1166.616 C 1344.066 1167.397, 1327.705 1171.149, 1320.581 1173.708 C 1278.700 1188.750, 1246.989 1225.460, 1237.404 1270 C 1234.838 1281.924, 1234.799 1309.177, 1237.332 1320.768 C 1246.099 1360.885, 1270.716 1393.220, 1306 1410.964 C 1326.233 1421.138, 1340.753 1424.492, 1364.500 1424.475 C 1383.022 1424.462, 1391.023 1423.231, 1406.427 1418.025 C 1443.679 1405.433, 1474.591 1374.413, 1486.961 1337.211 C 1502.421 1290.713, 1491.370 1241.101, 1457.827 1206.429 C 1438.465 1186.413, 1416.768 1174.259, 1391 1168.992 C 1380.825 1166.912, 1360.389 1165.683, 1351.500 1166.616 M 782.545 1768.250 C 759.499 1822.287, 740.446 1867.750, 740.205 1869.277 L 739.765 1872.053 755.077 1871.777 L 770.389 1871.500 779.467 1849.500 L 788.546 1827.500 823.607 1827.237 L 858.668 1826.975 867.584 1849.237 L 876.500 1871.500 893.425 1871.775 C 903.573 1871.940, 910.744 1871.656, 911.333 1871.067 C 912.764 1869.636, 828.024 1670.052, 825.973 1670.022 C 824.892 1670.006, 812.199 1698.718, 782.545 1768.250 M 1554.245 1771.250 L 1554.500 1871.500 1569.500 1871.500 L 1584.500 1871.500 1584.759 1820.750 C 1584.979 1777.676, 1585.233 1770, 1586.440 1770 C 1587.221 1770, 1601.931 1789.583, 1619.127 1813.518 C 1644.834 1849.297, 1650.625 1856.803, 1651.698 1855.731 C 1652.415 1855.014, 1667.112 1834.418, 1684.358 1809.963 C 1701.603 1785.509, 1716.340 1765.500, 1717.107 1765.500 C 1718.277 1765.500, 1718.541 1774.018, 1718.759 1818.750 L 1719.018 1872 1734.402 1872 C 1747.508 1872, 1749.876 1871.766, 1750.393 1870.418 C 1750.727 1869.548, 1751 1824.286, 1751 1769.835 C 1751 1693.118, 1750.729 1670.924, 1749.796 1671.235 C 1749.135 1671.455, 1726.972 1701.847, 1700.546 1738.772 C 1674.121 1775.697, 1652.050 1805.927, 1651.500 1805.949 C 1650.950 1805.971, 1629.125 1775.641, 1603 1738.550 C 1576.875 1701.458, 1555.160 1671.086, 1554.745 1671.055 C 1554.330 1671.025, 1554.105 1716.112, 1554.245 1771.250 M 2134 1771.525 L 2134 1872.051 2149.750 1871.775 L 2165.500 1871.500 2165.713 1810.087 C 2165.830 1776.310, 2166.300 1748.300, 2166.759 1747.841 C 2167.217 1747.383, 2198.116 1776.594, 2235.424 1812.754 C 2272.731 1848.914, 2303.875 1878.646, 2304.632 1878.824 C 2305.796 1879.098, 2305.970 1863.610, 2305.755 1778.824 L 2305.500 1678.500 2290 1678.500 L 2274.500 1678.500 2274.243 1741.822 C 2274.022 1796.065, 2273.780 1805.098, 2272.558 1804.822 C 2271.773 1804.645, 2240.700 1774.463, 2203.507 1737.750 C 2166.315 1701.037, 2135.460 1671, 2134.942 1671 C 2134.359 1671, 2134 1709.294, 2134 1771.525 M 1922 1677.465 C 1872.753 1688, 1838.089 1735.003, 1842.998 1784.590 C 1844.087 1795.591, 1844.307 1796.706, 1847.234 1806 C 1857.942 1840.002, 1887.148 1865.694, 1923.500 1873.093 C 1932.153 1874.854, 1952.904 1874.557, 1962.408 1872.536 C 1979.457 1868.910, 1996.153 1860.191, 2009.131 1848.137 C 2027.972 1830.635, 2038.279 1810.505, 2041.062 1785.776 C 2046.390 1738.424, 2015.080 1692.734, 1967.826 1678.905 C 1958.365 1676.136, 1932.074 1675.310, 1922 1677.465 M 2613 1677.496 C 2576.425 1685.659, 2546.808 1714.240, 2536.835 1751 C 2534.869 1758.245, 2534.532 1761.862, 2534.554 1775.500 C 2534.582 1792.711, 2535.679 1799.267, 2540.638 1811.853 C 2549.567 1834.518, 2569.201 1855.293, 2591.378 1865.539 C 2611.938 1875.038, 2637.366 1877.045, 2660 1870.955 C 2686.133 1863.924, 2710.691 1843.491, 2722.974 1818.559 C 2730.670 1802.940, 2732.476 1794.730, 2732.449 1775.500 C 2732.422 1756.644, 2730.617 1748.154, 2723.502 1733.414 C 2710.817 1707.140, 2688.130 1687.744, 2660.288 1679.370 C 2652.712 1677.092, 2649.294 1676.680, 2635.500 1676.386 C 2624.071 1676.143, 2617.643 1676.460, 2613 1677.496 M 0.610 1679.575 C 0.274 1680.449, -0 1686.961, -0 1694.047 C -0 1705.760, 0.176 1707.024, 1.934 1707.965 C 3.104 1708.591, 12.790 1709, 26.428 1709 L 48.988 1709 49.244 1790.250 L 49.500 1871.500 65 1871.500 L 80.500 1871.500 80.756 1790.250 L 81.012 1709 104.883 1709 C 124.021 1709, 128.983 1708.725, 129.907 1707.613 C 130.685 1706.675, 130.967 1701.732, 130.779 1692.363 L 130.500 1678.500 65.860 1678.243 C 7.564 1678.011, 1.160 1678.141, 0.610 1679.575 M 218.692 1678.642 C 218.311 1679.022, 218.003 1709.296, 218.007 1745.917 C 218.014 1809.157, 218.115 1812.921, 220.025 1820.887 C 223.133 1833.853, 227.881 1842.010, 238.438 1852.523 C 248.784 1862.825, 258.671 1868.510, 272.500 1872.110 C 283.689 1875.022, 303.266 1875.013, 314.378 1872.089 C 335.950 1866.413, 352.920 1853.042, 362.084 1834.500 C 369.034 1820.437, 369.046 1820.284, 368.757 1745.280 L 368.500 1678.500 353.500 1678.500 L 338.500 1678.500 337.971 1744.500 C 337.583 1792.831, 337.113 1811.465, 336.214 1814.106 C 335.538 1816.090, 333.226 1820.434, 331.076 1823.761 C 319.252 1842.056, 294.029 1848.884, 274.094 1839.188 C 266.146 1835.321, 257.673 1826.645, 253.743 1818.347 L 250.500 1811.500 250 1745 L 249.500 1678.500 234.442 1678.225 C 226.160 1678.074, 219.072 1678.261, 218.692 1678.642 M 564.490 1679.174 C 564.212 1679.903, 564.100 1723.475, 564.242 1776 L 564.500 1871.500 580 1871.500 L 595.500 1871.500 596 1838.500 L 596.500 1805.500 619 1804.913 C 638.246 1804.410, 642.440 1804.017, 648 1802.189 C 672.714 1794.067, 688.055 1772.833, 689.696 1744.482 C 690.354 1733.092, 688.477 1721.368, 684.601 1712.676 C 679.416 1701.045, 668.817 1690.596, 656.464 1684.939 C 643.327 1678.922, 641.648 1678.717, 601.748 1678.265 C 571.854 1677.926, 564.901 1678.096, 564.490 1679.174 M 967.674 1678.659 C 967.303 1679.030, 967 1685.543, 967 1693.131 C 967 1705.750, 967.165 1707.018, 968.934 1707.965 C 970.104 1708.591, 979.790 1709, 993.428 1709 L 1015.988 1709 1016.244 1790.250 L 1016.500 1871.500 1032 1871.500 L 1047.500 1871.500 1047.756 1790.250 L 1048.012 1709 1071.883 1709 C 1091.021 1709, 1095.983 1708.725, 1096.907 1707.613 C 1097.685 1706.675, 1097.967 1701.732, 1097.779 1692.363 L 1097.500 1678.500 1032.924 1678.243 C 997.407 1678.101, 968.045 1678.289, 967.674 1678.659 M 1188.461 1679.250 C 1188.199 1679.938, 1188.100 1723.475, 1188.242 1776 L 1188.500 1871.500 1204 1871.500 L 1219.500 1871.500 1220 1838.500 L 1220.500 1805.500 1235.464 1805.500 L 1250.428 1805.500 1271.964 1838.738 L 1293.500 1871.977 1310.781 1871.988 C 1325.107 1871.998, 1328.160 1871.747, 1328.629 1870.523 C 1328.967 1869.643, 1320.272 1854.902, 1307.098 1834.021 C 1294.944 1814.756, 1285 1798.418, 1285 1797.713 C 1285 1797.008, 1286.463 1795.569, 1288.250 1794.516 C 1293.593 1791.367, 1301.067 1783.885, 1305.169 1777.578 C 1311.062 1768.520, 1314.126 1757.734, 1314.707 1744 C 1315.573 1723.533, 1310.875 1709.676, 1299.089 1697.939 C 1289.086 1687.977, 1278.358 1682.601, 1262.162 1679.435 C 1252.226 1677.492, 1189.191 1677.334, 1188.461 1679.250 M 1418.471 1679.224 C 1418.203 1679.926, 1418.100 1723.475, 1418.242 1776 L 1418.500 1871.500 1434 1871.500 L 1449.500 1871.500 1449.500 1775 L 1449.500 1678.500 1434.229 1678.224 C 1422.561 1678.013, 1418.842 1678.249, 1418.471 1679.224 M 2410.692 1678.642 C 2410.311 1679.022, 2410 1722.695, 2410 1775.692 L 2410 1872.051 2425.750 1871.775 L 2441.500 1871.500 2441.500 1775 L 2441.500 1678.500 2426.442 1678.225 C 2418.160 1678.074, 2411.072 1678.261, 2410.692 1678.642 M 1932.205 1707.102 C 1899.678 1712.005, 1875.681 1740.836, 1875.693 1775 C 1875.697 1787.679, 1877.489 1795.373, 1883.145 1807 C 1886.495 1813.885, 1888.916 1817.120, 1895.890 1824.026 C 1909.893 1837.892, 1923.584 1843.449, 1943.500 1843.348 C 1952.643 1843.302, 1955.900 1842.837, 1962.792 1840.590 C 1993.007 1830.739, 2012.748 1798.128, 2008.041 1765.843 C 2002.506 1727.883, 1968.596 1701.618, 1932.205 1707.102 M 2624.500 1706.955 C 2609.590 1709.336, 2597.714 1715.355, 2586.962 1725.978 C 2573.991 1738.792, 2567.035 1755.906, 2567.035 1775 C 2567.035 1801.799, 2581.359 1825.428, 2604.241 1836.377 C 2616.153 1842.077, 2622.201 1843.481, 2634.500 1843.401 C 2653.082 1843.281, 2666.308 1837.751, 2679.600 1824.547 C 2693.061 1811.174, 2699.943 1794.414, 2699.983 1774.910 C 2700.036 1748.448, 2684.162 1723.223, 2660.754 1712.573 C 2656.764 1710.758, 2651.475 1708.798, 2649 1708.216 C 2642.401 1706.666, 2630.232 1706.039, 2624.500 1706.955 M 596.236 1741.176 L 596.500 1773.500 615.500 1773.478 C 633.124 1773.458, 634.828 1773.295, 639.031 1771.221 C 646.462 1767.555, 650.686 1763.383, 654.205 1756.235 C 657.150 1750.253, 657.500 1748.638, 657.500 1741.021 C 657.500 1733.776, 657.080 1731.602, 654.693 1726.500 C 651.252 1719.142, 648.007 1715.614, 641.500 1712.157 C 636.636 1709.572, 635.947 1709.491, 616.236 1709.176 L 595.972 1708.852 596.236 1741.176 M 1220.236 1741.176 L 1220.500 1773.500 1239.500 1773.500 C 1258.252 1773.500, 1258.574 1773.464, 1264.161 1770.720 C 1270.682 1767.517, 1276.299 1761.753, 1279.358 1755.122 C 1282.626 1748.036, 1282.410 1734.432, 1278.910 1727 C 1275.410 1719.569, 1272.169 1715.964, 1265.833 1712.454 L 1260.500 1709.500 1240.236 1709.176 L 1219.972 1708.852 1220.236 1741.176 M 823.227 1744.261 C 821.257 1746.702, 800.954 1797.439, 801.441 1798.706 C 802.088 1800.392, 845.506 1800.608, 846.543 1798.930 C 847.225 1797.826, 826.506 1744.431, 825.045 1743.528 C 824.595 1743.250, 823.777 1743.580, 823.227 1744.261" stroke="none" fill="#84043c" fillRule="evenodd"/></svg>